# AST/ASF file generated using VICON BodyLanguage
# -----------------------------------------------
:version 1.10
:name VICON
:units
  mass 1.0
  length 0.45
  angle deg
:documentation
   .ast/.asf automatically generated from VICON data using
   VICON BodyBuilder and BodyLanguage model FoxedUp or BRILLIANT.MOD
:root
   order TX TY TZ RX RY RZ
   axis XYZ
   position 0 0 0  
   orientation 0 0 0 
:bonedata
  begin
     id 1 
     name lhipjoint
     direction 0.576517 -0.752066 0.319413 
     length 2.45433 
     axis 0 0 0  XYZ
  end
  begin
     id 2 
     name lfemur
     direction 0.34202 -0.939693 0  
     length 7.54459  
     axis 0 0 20  XYZ
    dof rx ry rz
    limits (-160.0 20.0)
           (-70.0 70.0)
           (-60.0 70.0)
  end
  begin
     id 3 
     name ltibia
     direction 0.34202 -0.939693 0   
     length 7.73986   
     axis 0 0 20   XYZ
    dof rx
    limits (-10.0 170.0)
  end
  begin
     id 4 
     name lfoot
     direction 0.090693 -0.249177 0.964202   
     length 2.28437   
     axis -90 7.62852e-016 20   XYZ
    dof rx rz
    limits (-45.0 90.0)
           (-70.0 20.0)
  end
  begin
     id 5 
     name ltoes
     direction 1.5356e-011 -4.21928e-011 1   
     length 1.14243   
     axis -90 7.62852e-016 20   XYZ
    dof rx
    limits (-90.0 20.0)
  end
  begin
     id 6 
     name rhipjoint
     direction -0.573937 -0.753736 0.320122   
     length 2.44889  
     axis 0 0 0  XYZ 
  end
  begin
     id 7 
     name rfemur
     direction -0.34202 -0.939693 0   
     length 7.50166   
     axis 0 0 -20   XYZ
    dof rx ry rz
    limits (-160.0 20.0)
           (-70.0 70.0)
           (-70.0 60.0)
  end
  begin
     id 8 
     name rtibia
     direction -0.34202 -0.939693 0   
     length 7.54266   
     axis 0 0 -20   XYZ
    dof rx
    limits (-10.0 170.0)
 end
 begin
     id 9 
     name rfoot
     direction -0.114017 -0.31326 0.942798   
     length 2.34212  
     axis -90 -7.62852e-016 -20   XYZ
    dof rx rz
    limits (-45.0 90.0)
           (-20.0 70.0)
  end
  begin
     id 10 
     name rtoes
     direction -1.53557e-011 -4.21867e-011 1   
     length 1.16246   
     axis -90 -7.62852e-016 -20   XYZ
    dof rx
    limits (-90.0 20.0)
  end
  begin
     id 11 
     name lowerback
     direction -0.0228371 0.999155 -0.034167   
     length 2.0537   
     axis 0 0 0   XYZ
    dof rx ry rz
    limits (-20.0 45.0)
           (-30.0 30.0)
           (-30.0 30.0)
  end
  begin
     id 12 
     name upperback
     direction 0.0198981 0.999794 0.00389455   
     length 2.05302   
     axis 0 0 0   XYZ
    dof rx ry rz
    limits (-20.0 45.0)
           (-30.0 30.0)
           (-30.0 30.0)
  end
  begin
     id 13 
     name thorax
     direction 0.0304566 0.99935 0.0192987   
     length 2.05315   
     axis 0 0 0   XYZ
    dof rx ry rz
    limits (-20.0 45.0)
           (-30.0 30.0)
           (-30.0 30.0)
  end
  begin
     id 14 
     name lowerneck
     direction -0.0196762 0.99417 0.106017   
     length 1.82056   
     axis 0 0 0   XYZ
    dof rx ry rz
    limits (-20.0 45.0)
           (-30.0 30.0)
           (-30.0 30.0)
  end
  begin
     id 15 
     name upperneck
     direction 0.00517787 0.9802 -0.197944   
     length 1.83835   
     axis 0 0 0   XYZ
    dof rx ry rz
    limits (-20.0 45.0)
           (-30.0 30.0)
           (-30.0 30.0)
  end
  begin
     id 16
     name head
     direction 0.00211419 0.996945 -0.078081  
     length 1.85629  
     axis 0 0 0   XYZ
    dof rx ry rz
    limits (-20.0 45.0)
           (-30.0 30.0)
           (-30.0 30.0)
  end
  begin
     id 17 
     name lclavicle
     direction 0.930001 0.365811 -0.0357824  
     length 3.81961  
     axis 0 0 0   XYZ
    dof ry rz
    limits (-20.0 10.0)
           (0.0 20.0)
  end
  begin
     id 18 
     name lhumerus
     direction 1 -4.48968e-011 -3.06644e-027   
     length 5.14507   
     axis 180 -30 -90   XYZ
    dof rx ry rz
    limits (-60.0 90.0)
           (-90.0 90.0)
           (-90.0 90.0)
  end
  begin
     id 19
     name lradius
     direction 1 -4.48965e-011 9.06925e-028   
     length 3.50646   
     axis 180 -30 -90   XYZ
    dof rx
    limits (-10.0 170.0)
  end
  begin
     id 20
     name lwrist
     direction 1 -4.48957e-011 1.03922e-027   
     length 1.75323   
     axis -2.56395e-016 90 90   XYZ
    dof ry
    limits (-180.0 0.0)
 end
  begin
     id 21 
     name lhand
     direction 1 -4.48967e-011 2.08017e-027   
     length 0.629969   
     axis -1.32723e-015 90 90   XYZ
    dof rx rz
    limits (-90.0 90.0)
           (-45.0 45.0)
  end
  begin
     id 22 
     name lfingers
     direction 1 -4.49089e-011 4.20095e-027   
     length 0.507897   
     axis -2.6545e-015 90 90   XYZ
    dof rx
    limits (0.0 90.0)
  end
  begin
     id 23
     name lthumb
     direction 0.707107 -6.35001e-011 0.707107   
     length 0.729241   
     axis -90 45 5.05613e-014   XYZ
    dof rx rz
    limits (-45.0 45.0)
           (-45.0 45.0)
  end
  begin
     id 24 
     name rclavicle
     direction -0.881882 0.464123 -0.0829113   
     length 3.47515  
     axis 0 0 0   XYZ 
    dof ry rz
    limits (-10.0 20.0)
           (-20.0 0.0)
  end
  begin
     id 25 
     name rhumerus
     direction -1 -4.48961e-011 -1.55672e-027  
     length 5.232   
     axis 180 30 90   XYZ
    dof rx ry rz
    limits (-90.0 60.0)
           (-90.0 90.0)
           (-90.0 90.0)
  end
  begin
     id 26 
     name rradius
     direction -1 -4.48963e-011 6.18178e-029   
     length 3.65641   
     axis 180 30 90   XYZ
    dof rx
    limits (-10.0 170.0)
  end
  begin
     id 27 
     name rwrist
     direction -1 -4.48982e-011 1.04136e-027   
     length 1.8282   
     axis -2.56395e-016 -90 -90   XYZ
    dof ry
    limits (-180.0 0.0)
  end
  begin
     id 28
     name rhand
     direction -1 -4.48929e-011 2.07378e-027   
     length 0.656807   
     axis -1.32723e-015 -90 -90   XYZ
    dof rx rz
    limits (-90.0 90.0)
           (-45.0 45.0)
  end
  begin
     id 29
     name rfingers
     direction -1 -4.489e-011 4.13816e-027   
     length 0.529535   
     axis -2.6545e-015 -90 -90   XYZ
    dof rx
    limits (0.0 90.0)
  end
  begin
     id 30
     name rthumb
     direction -0.707107 -6.34843e-011 0.707107   
     length 0.760309   
     axis -90 -45 -5.05613e-014   XYZ
    dof rx rz
    limits (-45.0 45.0)
           (-45.0 45.0)
  end
:hierarchy
  begin
    root lhipjoint rhipjoint lowerback
    lhipjoint lfemur
    lfemur ltibia
    ltibia lfoot
    lfoot ltoes
    rhipjoint rfemur
    rfemur rtibia
    rtibia rfoot
    rfoot rtoes
    lowerback upperback
    upperback thorax
    thorax lowerneck lclavicle rclavicle
    lowerneck upperneck
    upperneck head
    lclavicle lhumerus
    lhumerus lradius
    lradius lwrist
    lwrist lhand lthumb
    lhand lfingers
    rclavicle rhumerus
    rhumerus rradius
    rradius rwrist
    rwrist rhand rthumb
    rhand rfingers
  end

#!OML:ASF H:\ManfredETheater\Project 1\Capture day 1\Session 1\subject.ASF
:FULLY-SPECIFIED
:DEGREES
32
root 1.47544 16.0492 -34.5679 26.0165 -1.89018 5.43051
lowerback 16.3547 -2.8182 -4.2372
upperback -0.387713 -4.53154 0.0898707
thorax -9.26842 -1.95883 3.56949
lowerneck -17.4765 0.473536 -1.80232
upperneck -0.594855 0.974065 0.0495582
head 2.85451 0.476215 0.412639
rclavicle -2.88238e-015 -1.51076e-014
rhumerus -81.4384 5.13517 -86.5979
rradius 93.698
rwrist -11.7617
rhand -28.3189 9.41059
rfingers 7.12502
rthumb -1.69388 -20.5624
lclavicle -2.88238e-015 -1.51076e-014
lhumerus -30.4825 -22.1756 102.27
lradius 131.241
lwrist 15.6994
lhand -25.2801 -20.2536
lfingers 7.12502
lthumb 1.24108 9.7225
rfemur -75.992 -8.0045 18.3432
rtibia 77.1522
rfoot -18.5451 -10.103
rtoes -36.1235
lfemur -14.4981 -2.70651 -26.9254
ltibia 46.7988
lfoot -24.1387 -9.5223
ltoes -27.1773
33
root 1.45515 16.1071 -34.0658 25.4484 -2.41772 5.50568
lowerback 16.1072 -2.91153 -4.43156
upperback -0.408201 -4.67724 0.137379
thorax -9.11895 -2.02459 3.74565
lowerneck -17.6042 0.770675 -1.68945
upperneck -0.185644 1.36047 -0.138647
head 3.02 0.657207 0.364105
rclavicle -7.7526e-015 -1.31198e-014
rhumerus -83.0521 5.06487 -86.1399
rradius 94.7774
rwrist -11.2424
rhand -28.2724 9.92895
rfingers 7.12502
rthumb -1.649 -20.0444
lclavicle -7.7526e-015 -1.31198e-014
lhumerus -30.7586 -23.3008 102.307
lradius 133.309
lwrist 15.7487
lhand -25.1 -20.7025
lfingers 7.12502
lthumb 1.41496 9.27259
rfemur -76.3348 -7.4097 18.1383
rtibia 73.4418
rfoot -18.0581 -8.96646
rtoes -37.3188
lfemur -11.3313 -3.16445 -27.1995
ltibia 44.0502
lfoot -19.4575 -11.0194
ltoes -27.2496
34
root 1.43189 16.1379 -33.5656 24.8673 -2.98283 5.6758
lowerback 15.8685 -2.98423 -4.71029
upperback -0.402346 -4.81423 0.136781
thorax -8.94276 -2.08535 3.91328
lowerneck -17.7598 1.04515 -1.5866
upperneck 0.179533 1.71792 -0.293041
head 3.17731 0.824968 0.327117
rclavicle 3.69739e-014 2.18663e-015
rhumerus -84.3526 4.87782 -85.6827
rradius 95.6493
rwrist -10.6366
rhand -28.2855 10.3413
rfingers 7.12502
rthumb -1.66167 -19.6319
lclavicle 3.69739e-014 2.18663e-015
lhumerus -31.2238 -24.3827 102.363
lradius 135.058
lwrist 15.6226
lhand -24.9554 -21.1119
lfingers 7.12502
lthumb 1.55462 8.86213
rfemur -76.5786 -6.87197 17.8932
rtibia 69.7253
rfoot -17.1559 -7.72307
rtoes -38.5392
lfemur -8.37197 -3.77073 -27.6416
ltibia 41.4668
lfoot -13.736 -12.4212
ltoes -26.6742
35
root 1.40691 16.1989 -33.0546 24.2903 -3.56635 5.93779
lowerback 15.6321 -3.04034 -5.06087
upperback -0.381321 -4.94441 0.0914386
thorax -8.74905 -2.14226 4.06956
lowerneck -17.9372 1.29381 -1.4953
upperneck 0.503186 2.04225 -0.417933
head 3.32572 0.977361 0.300109
rclavicle -1.03368e-013 3.18055e-015
rhumerus -85.3342 4.58508 -85.2384
rradius 96.3279
rwrist -10.0527
rhand -28.3462 10.6365
rfingers 7.12502
rthumb -1.72026 -19.3363
lclavicle -1.03368e-013 3.18055e-015
lhumerus -31.8584 -25.3658 102.44
lradius 136.451
lwrist 15.319
lhand -24.8317 -21.4968
lfingers 7.12502
lthumb 1.6741 8.47636
rfemur -76.4053 -6.43249 17.6395
rtibia 65.8672
rfoot -15.9484 -6.42822
rtoes -39.6009
lfemur -5.63334 -4.52462 -28.2482
ltibia 38.9854
lfoot -7.11255 -13.4619
ltoes -25.6832
36
root 1.37993 16.2564 -32.5419 23.7329 -4.15416 6.27866
lowerback 15.3897 -3.08148 -5.46901
upperback -0.356484 -5.06582 0.00845777
thorax -8.54627 -2.19453 4.21378
lowerneck -18.1198 1.51563 -1.40858
upperneck 0.786572 2.33073 -0.525462
head 3.46224 1.11267 0.277275
rclavicle 2.98177e-014 2.44505e-014
rhumerus -85.9977 4.20185 -84.8177
rradius 96.829
rwrist -9.57514
rhand -28.4392 10.8122
rfingers 7.12502
rthumb -1.8101 -19.1598
lclavicle 2.98177e-014 2.44505e-014
lhumerus -32.6275 -26.1817 102.524
lradius 137.448
lwrist 14.8618
lhand -24.7212 -21.8289
lfingers 7.12502
lthumb 1.78081 8.14346
rfemur -76.0799 -6.09285 17.4309
rtibia 62.1136
rfoot -14.3753 -5.17528
rtoes -40.4259
lfemur -3.20968 -5.4014 -29.0079
ltibia 36.8094
lfoot -0.093752 -14.0925
ltoes -23.9748
37
root 1.35121 16.3088 -32.029 23.1986 -4.72141 6.684
lowerback 15.1547 -3.10987 -5.91612
upperback -0.334203 -5.17742 -0.100034
thorax -8.34972 -2.24145 4.34987
lowerneck -18.3208 1.70703 -1.33401
upperneck 1.04926 2.58091 -0.621616
head 3.59609 1.2292 0.257903
rclavicle 3.07122e-014 -4.17448e-015
rhumerus -86.3496 3.73857 -84.426
rradius 97.1649
rwrist -9.24246
rhand -28.5608 10.8964
rfingers 7.12502
rthumb -1.92757 -19.0747
lclavicle 3.07122e-014 -4.17448e-015
lhumerus -33.4929 -26.7991 102.615
lradius 138.02
lwrist 14.3363
lhand -24.6358 -22.0581
lfingers 7.12502
lthumb 1.86335 7.91352
rfemur -75.6268 -5.86864 17.3081
rtibia 58.5295
rfoot -12.5076 -4.02532
rtoes -40.8956
lfemur -1.09054 -6.35639 -29.8894
ltibia 34.9687
lfoot 6.88053 -14.424
ltoes -20.6285
38
root 1.32136 16.3549 -31.5179 22.701 -5.25096 7.13116
lowerback 14.9302 -3.12847 -6.38401
upperback -0.326817 -5.27901 -0.21644
thorax -8.17451 -2.28232 4.48757
lowerneck -18.5208 1.87036 -1.27454
upperneck 1.29545 2.79724 -0.720137
head 3.7249 1.3285 0.237919
rclavicle 1.97791e-014 1.64991e-014
rhumerus -86.3985 3.21766 -84.0602
rradius 97.3362
rwrist -9.06039
rhand -28.6832 10.9151
rfingers 7.12502
rthumb -2.04575 -19.0548
lclavicle 1.97791e-014 1.64991e-014
lhumerus -34.4076 -27.166 102.697
lradius 138.144
lwrist 13.7782
lhand -24.5584 -22.1673
lfingers 7.12502
lthumb 1.93802 7.80365
rfemur -75.1215 -5.76777 17.315
rtibia 55.296
rfoot -10.5319 -3.0706
rtoes -41.0209
lfemur 0.611446 -7.28452 -30.8355
ltibia 33.7503
lfoot 12.961 -14.5852
ltoes -15.7913
39
root 1.29113 16.3934 -31.0099 22.2346 -5.71963 7.59705
lowerback 14.7426 -3.13869 -6.84585
upperback -0.341505 -5.3691 -0.324281
thorax -8.04439 -2.31561 4.63196
lowerneck -18.9057 1.99466 -1.27485
upperneck 2.00505 2.97898 -0.786232
head 3.56859 1.40888 0.203931
rclavicle -9.17391e-014 -2.92213e-014
rhumerus -86.1643 2.64945 -83.7069
rradius 97.3408
rwrist -9.00412
rhand -28.7832 10.916
rfingers 7.12502
rthumb -2.14234 -19.053
lclavicle -9.17391e-014 -2.92213e-014
lhumerus -35.3403 -27.2691 102.779
lradius 137.828
lwrist 13.3355
lhand -24.4435 -22.1496
lfingers 7.12502
lthumb 2.04907 7.82031
rfemur -74.5961 -5.79793 17.4791
rtibia 52.5305
rfoot -8.63 -2.37246
rtoes -40.9036
lfemur 1.85955 -8.06346 -31.7738
ltibia 33.3221
lfoot 17.4988 -14.6264
ltoes -10.2628
40
root 1.26119 16.4239 -30.5065 21.7963 -6.10788 8.0484
lowerback 14.6047 -3.14207 -7.26693
upperback -0.375254 -5.44426 -0.407309
thorax -7.9653 -2.34009 4.78168
lowerneck -19.0827 2.09592 -1.26283
upperneck 2.24307 3.12754 -0.932684
head 3.6712 1.47052 0.172546
rclavicle -7.87187e-014 9.34288e-015
rhumerus -85.6661 2.0418 -83.3596
rradius 97.1968
rwrist -9.0245
rhand -28.8418 10.912
rfingers 7.12502
rthumb -2.19895 -19.0564
lclavicle -7.87187e-014 9.34288e-015
lhumerus -36.2438 -27.0979 102.845
lradius 137.068
lwrist 12.9358
lhand -24.282 -22.0215
lfingers 7.12502
lthumb 2.20501 7.94683
rfemur -74.0709 -5.95156 17.8129
rtibia 50.3282
rfoot -6.96035 -1.93376
rtoes -40.6249
lfemur 2.61666 -8.5777 -32.6168
ltibia 33.8158
lfoot 20.2145 -14.5176
ltoes -5.20964
41
root 1.23211 16.4464 -30.0083 21.3759 -6.3989 8.44766
lowerback 14.5168 -3.14074 -7.6071
upperback -0.412663 -5.49962 -0.452953
thorax -7.92381 -2.3555 4.92662
lowerneck -19.2414 2.16586 -1.28327
upperneck 2.45113 3.24441 -1.10918
head 3.7623 1.51414 0.134113
rclavicle 2.44505e-014 7.25564e-015
rhumerus -84.9127 1.39636 -83.0153
rradius 96.9177
rwrist -9.05748
rhand -28.8599 10.9033
rfingers 7.12502
rthumb -2.21642 -19.065
lclavicle 2.44505e-014 7.25564e-015
lhumerus -37.0976 -26.7108 102.923
lradius 135.896
lwrist 12.6516
lhand -24.144 -21.7719
lfingers 7.12502
lthumb 2.33827 8.19501
rfemur -73.541 -6.20677 18.3023
rtibia 48.7455
rfoot -5.63449 -1.70517
rtoes -40.2115
lfemur 2.87929 -8.76161 -33.284
ltibia 35.2854
lfoot 21.1668 -14.2065
ltoes -1.6522
42
root 1.204 16.4601 -29.5156 20.9592 -6.58654 8.75613
lowerback 14.4863 -3.13378 -7.82925
upperback -0.44385 -5.52789 -0.453323
thorax -7.91713 -2.35987 5.05382
lowerneck -19.3709 2.20413 -1.33431
upperneck 2.61744 3.32871 -1.31787
head 3.83658 1.53939 0.0871971
rclavicle 7.90169e-015 -2.98177e-016
rhumerus -83.9238 0.711882 -82.6746
rradius 96.5058
rwrist -9.04583
rhand -28.8322 10.8979
rfingers 7.12502
rthumb -2.18963 -19.0706
lclavicle 7.90169e-015 -2.98177e-016
lhumerus -37.8903 -26.1446 103.024
lradius 134.346
lwrist 12.4783
lhand -24.0505 -21.4403
lfingers 7.12502
lthumb 2.4286 8.52558
rfemur -72.9809 -6.52399 18.9123
rtibia 47.7943
rfoot -4.66812 -1.6101
rtoes -39.6484
lfemur 2.69126 -8.62102 -33.7192
ltibia 37.6822
lfoot 20.6764 -13.6819
ltoes 0.0167696
43
root 1.17669 16.4658 -29.028 20.533 -6.67425 8.94334
lowerback 14.5079 -3.11802 -7.90846
upperback -0.454164 -5.51955 -0.407116
thorax -7.92996 -2.35074 5.14821
lowerneck -19.4678 2.21142 -1.41206
upperneck 2.7281 3.37952 -1.55232
head 3.88902 1.54651 0.032825
rclavicle 1.06847e-015 -1.4064e-014
rhumerus -82.7168 -0.0220381 -82.3492
rradius 95.9673
rwrist -8.94541
rhand -28.7603 10.8816
rfingers 7.12502
rthumb -2.12021 -19.0876
lclavicle 1.06847e-015 -1.4064e-014
lhumerus -38.6097 -25.4391 103.142
lradius 132.466
lwrist 12.3969
lhand -24.0559 -21.0558
lfingers 7.12502
lthumb 2.42338 8.9102
rfemur -72.3499 -6.86718 19.6145
rtibia 47.4368
rfoot -4.04438 -1.5126
rtoes -38.7313
lfemur 2.09634 -8.22996 -33.9022
ltibia 40.8925
lfoot 19.3112 -12.9142
ltoes 0.0895409
44
root 1.1495 16.4653 -28.5446 20.0761 -6.67072 8.98541
lowerback 14.5815 -3.09131 -7.83211
upperback -0.429544 -5.46883 -0.316806
thorax -7.94918 -2.327 5.19835
lowerneck -19.535 2.1923 -1.50582
upperneck 2.78529 3.39921 -1.80182
head 3.92055 1.53769 -0.0271725
rclavicle -5.36684e-014 -2.44288e-015
rhumerus -81.3152 -0.802922 -82.065
rradius 95.3196
rwrist -8.75514
rhand -28.6681 10.7995
rfingers 7.12502
rthumb -2.0312 -19.1706
lclavicle -5.36684e-014 -2.44288e-015
lhumerus -39.2507 -24.6242 103.27
lradius 130.301
lwrist 12.3939
lhand -24.1941 -20.659
lfingers 7.12502
lthumb 2.2899 9.30844
rfemur -71.5783 -7.19196 20.3626
rtibia 47.5985
rfoot -3.68577 -1.3522
rtoes -37.1701
lfemur 1.1686 -7.67799 -33.8287
ltibia 44.7616
lfoot 17.6311 -12.0082
ltoes -0.679177
